<?xml version="1.0" encoding="utf-8" standalone="no"?>
<!DOCTYPE svg PUBLIC "-//W3C//DTD SVG 1.1//EN"
  "http://www.w3.org/Graphics/SVG/1.1/DTD/svg11.dtd">
<!-- Created with matplotlib (https://matplotlib.org/) -->
<svg height="231.84pt" version="1.1" viewBox="0 0 237.6 231.84" width="237.6pt" xmlns="http://www.w3.org/2000/svg" xmlns:xlink="http://www.w3.org/1999/xlink">
 <defs>
  <style type="text/css">
*{stroke-linecap:butt;stroke-linejoin:round;}
  </style>
 </defs>
 <g id="figure_1">
  <g id="patch_1">
   <path d="M 0 231.84 
L 237.6 231.84 
L 237.6 0 
L 0 0 
z
" style="fill:#ffffff;"/>
  </g>
  <g id="axes_1">
   <g id="LineCollection_1">
    <path clip-path="url(#p42606fe418)" d="M 220.254545 115.92 
L 180.065911 36.659387 
" style="fill:none;stroke:#000000;"/>
    <path clip-path="url(#p42606fe418)" d="M 220.254545 115.92 
L 89.762868 17.083636 
" style="fill:none;stroke:#000000;"/>
    <path clip-path="url(#p42606fe418)" d="M 220.254545 115.92 
L 17.345455 71.933672 
" style="fill:none;stroke:#000000;"/>
    <path clip-path="url(#p42606fe418)" d="M 220.254545 115.92 
L 17.345455 159.906322 
" style="fill:none;stroke:#000000;"/>
    <path clip-path="url(#p42606fe418)" d="M 220.254545 115.92 
L 89.762862 214.756364 
" style="fill:none;stroke:#000000;"/>
    <path clip-path="url(#p42606fe418)" d="M 220.254545 115.92 
L 180.065892 195.180625 
" style="fill:none;stroke:#000000;"/>
    <path clip-path="url(#p42606fe418)" d="M 180.065911 36.659387 
L 89.762868 17.083636 
" style="fill:none;stroke:#000000;"/>
    <path clip-path="url(#p42606fe418)" d="M 180.065911 36.659387 
L 17.345455 71.933672 
" style="fill:none;stroke:#000000;"/>
    <path clip-path="url(#p42606fe418)" d="M 180.065911 36.659387 
L 17.345455 159.906322 
" style="fill:none;stroke:#000000;"/>
    <path clip-path="url(#p42606fe418)" d="M 180.065911 36.659387 
L 89.762862 214.756364 
" style="fill:none;stroke:#000000;"/>
    <path clip-path="url(#p42606fe418)" d="M 180.065911 36.659387 
L 180.065892 195.180625 
" style="fill:none;stroke:#000000;"/>
    <path clip-path="url(#p42606fe418)" d="M 89.762868 17.083636 
L 17.345455 71.933672 
" style="fill:none;stroke:#000000;"/>
    <path clip-path="url(#p42606fe418)" d="M 89.762868 17.083636 
L 17.345455 159.906322 
" style="fill:none;stroke:#000000;"/>
    <path clip-path="url(#p42606fe418)" d="M 89.762868 17.083636 
L 89.762862 214.756364 
" style="fill:none;stroke:#000000;"/>
    <path clip-path="url(#p42606fe418)" d="M 89.762868 17.083636 
L 180.065892 195.180625 
" style="fill:none;stroke:#000000;"/>
    <path clip-path="url(#p42606fe418)" d="M 17.345455 71.933672 
L 17.345455 159.906322 
" style="fill:none;stroke:#000000;"/>
    <path clip-path="url(#p42606fe418)" d="M 17.345455 71.933672 
L 89.762862 214.756364 
" style="fill:none;stroke:#000000;"/>
    <path clip-path="url(#p42606fe418)" d="M 17.345455 71.933672 
L 180.065892 195.180625 
" style="fill:none;stroke:#000000;"/>
    <path clip-path="url(#p42606fe418)" d="M 17.345455 159.906322 
L 89.762862 214.756364 
" style="fill:none;stroke:#000000;"/>
    <path clip-path="url(#p42606fe418)" d="M 17.345455 159.906322 
L 180.065892 195.180625 
" style="fill:none;stroke:#000000;"/>
    <path clip-path="url(#p42606fe418)" d="M 89.762862 214.756364 
L 180.065892 195.180625 
" style="fill:none;stroke:#000000;"/>
   </g>
   <g id="PathCollection_1">
    <defs>
     <path d="M 0 8.660254 
C 2.296726 8.660254 4.499694 7.747755 6.123724 6.123724 
C 7.747755 4.499694 8.660254 2.296726 8.660254 0 
C 8.660254 -2.296726 7.747755 -4.499694 6.123724 -6.123724 
C 4.499694 -7.747755 2.296726 -8.660254 0 -8.660254 
C -2.296726 -8.660254 -4.499694 -7.747755 -6.123724 -6.123724 
C -7.747755 -4.499694 -8.660254 -2.296726 -8.660254 0 
C -8.660254 2.296726 -7.747755 4.499694 -6.123724 6.123724 
C -4.499694 7.747755 -2.296726 8.660254 0 8.660254 
z
" id="C0_0_fe5ef41278"/>
    </defs>
    <g clip-path="url(#p42606fe418)">
     <use style="fill:#66c2a5;stroke:#66c2a5;" x="220.254545" xlink:href="#C0_0_fe5ef41278" y="115.92"/>
    </g>
    <g clip-path="url(#p42606fe418)">
     <use style="fill:#fc8d62;stroke:#fc8d62;" x="180.065911" xlink:href="#C0_0_fe5ef41278" y="36.659387"/>
    </g>
    <g clip-path="url(#p42606fe418)">
     <use style="fill:#8da0cb;stroke:#8da0cb;" x="89.762868" xlink:href="#C0_0_fe5ef41278" y="17.083636"/>
    </g>
    <g clip-path="url(#p42606fe418)">
     <use style="fill:#a6d854;stroke:#a6d854;" x="17.345455" xlink:href="#C0_0_fe5ef41278" y="71.933672"/>
    </g>
    <g clip-path="url(#p42606fe418)">
     <use style="fill:#ffd92f;stroke:#ffd92f;" x="17.345455" xlink:href="#C0_0_fe5ef41278" y="159.906322"/>
    </g>
    <g clip-path="url(#p42606fe418)">
     <use style="fill:#e5c494;stroke:#e5c494;" x="89.762862" xlink:href="#C0_0_fe5ef41278" y="214.756364"/>
    </g>
    <g clip-path="url(#p42606fe418)">
     <use style="fill:#b3b3b3;stroke:#b3b3b3;" x="180.065892" xlink:href="#C0_0_fe5ef41278" y="195.180625"/>
    </g>
   </g>
  </g>
 </g>
 <defs>
  <clipPath id="p42606fe418">
   <rect height="217.44" width="223.2" x="7.2" y="7.2"/>
  </clipPath>
 </defs>
</svg>
