<?xml version="1.0" encoding="utf-8" standalone="no"?>
<!DOCTYPE svg PUBLIC "-//W3C//DTD SVG 1.1//EN"
  "http://www.w3.org/Graphics/SVG/1.1/DTD/svg11.dtd">
<!-- Created with matplotlib (https://matplotlib.org/) -->
<svg height="215.532pt" version="1.1" viewBox="0 0 237.6 215.532" width="237.6pt" xmlns="http://www.w3.org/2000/svg" xmlns:xlink="http://www.w3.org/1999/xlink">
 <defs>
  <style type="text/css">
*{stroke-linecap:butt;stroke-linejoin:round;}
  </style>
 </defs>
 <g id="figure_1">
  <g id="patch_1">
   <path d="M 0 215.532 
L 237.6 215.532 
L 237.6 0 
L 0 0 
z
" style="fill:#ffffff;"/>
  </g>
  <g id="axes_1">
   <g id="LineCollection_1">
    <path clip-path="url(#p8153c37a86)" d="M 118.8 16.342364 
L 51.163636 107.766 
" style="fill:none;stroke:#000000;"/>
    <path clip-path="url(#p8153c37a86)" d="M 118.8 16.342364 
L 186.436364 107.766 
" style="fill:none;stroke:#000000;"/>
    <path clip-path="url(#p8153c37a86)" d="M 51.163636 107.766 
L 84.981818 199.189636 
" style="fill:none;stroke:#000000;"/>
    <path clip-path="url(#p8153c37a86)" d="M 51.163636 107.766 
L 17.345455 199.189636 
" style="fill:none;stroke:#000000;"/>
    <path clip-path="url(#p8153c37a86)" d="M 186.436364 107.766 
L 152.618182 199.189636 
" style="fill:none;stroke:#000000;"/>
    <path clip-path="url(#p8153c37a86)" d="M 186.436364 107.766 
L 220.254545 199.189636 
" style="fill:none;stroke:#000000;"/>
   </g>
   <g id="PathCollection_1">
    <defs>
     <path d="M 0 8.660254 
C 2.296726 8.660254 4.499694 7.747755 6.123724 6.123724 
C 7.747755 4.499694 8.660254 2.296726 8.660254 0 
C 8.660254 -2.296726 7.747755 -4.499694 6.123724 -6.123724 
C 4.499694 -7.747755 2.296726 -8.660254 0 -8.660254 
C -2.296726 -8.660254 -4.499694 -7.747755 -6.123724 -6.123724 
C -7.747755 -4.499694 -8.660254 -2.296726 -8.660254 0 
C -8.660254 2.296726 -7.747755 4.499694 -6.123724 6.123724 
C -4.499694 7.747755 -2.296726 8.660254 0 8.660254 
z
" id="C0_0_5278aa44d5"/>
    </defs>
    <g clip-path="url(#p8153c37a86)">
     <use style="fill:#1f77b4;stroke:#1f77b4;" x="118.8" xlink:href="#C0_0_5278aa44d5" y="16.342364"/>
    </g>
    <g clip-path="url(#p8153c37a86)">
     <use style="fill:#d62728;stroke:#d62728;" x="51.163636" xlink:href="#C0_0_5278aa44d5" y="107.766"/>
    </g>
    <g clip-path="url(#p8153c37a86)">
     <use style="fill:#d62728;stroke:#d62728;" x="186.436364" xlink:href="#C0_0_5278aa44d5" y="107.766"/>
    </g>
    <g clip-path="url(#p8153c37a86)">
     <use style="fill:#1f77b4;stroke:#1f77b4;" x="84.981818" xlink:href="#C0_0_5278aa44d5" y="199.189636"/>
    </g>
    <g clip-path="url(#p8153c37a86)">
     <use style="fill:#1f77b4;stroke:#1f77b4;" x="17.345455" xlink:href="#C0_0_5278aa44d5" y="199.189636"/>
    </g>
    <g clip-path="url(#p8153c37a86)">
     <use style="fill:#1f77b4;stroke:#1f77b4;" x="152.618182" xlink:href="#C0_0_5278aa44d5" y="199.189636"/>
    </g>
    <g clip-path="url(#p8153c37a86)">
     <use style="fill:#1f77b4;stroke:#1f77b4;" x="220.254545" xlink:href="#C0_0_5278aa44d5" y="199.189636"/>
    </g>
   </g>
  </g>
 </g>
 <defs>
  <clipPath id="p8153c37a86">
   <rect height="201.132" width="223.2" x="7.2" y="7.2"/>
  </clipPath>
 </defs>
</svg>
